<svg width="9" height="12" viewBox="0 0 9 12" fill="none" xmlns="http://www.w3.org/2000/svg">
<path fill-rule="evenodd" clip-rule="evenodd" d="M4.10886 0.408875C6.37812 0.408875 8.21773 1.7785 8.21773 4.51774C8.21773 7.25698 7.49217 6.65365 6.8481 7.94179C6.55462 8.52876 6.38686 8.99004 6.29103 9.32545L6.26896 9.393C6.14561 9.72632 5.833 9.99622 5.47848 9.99622H2.73924C2.38472 9.99622 2.07211 9.72632 1.94877 9.393L1.9267 9.32545C1.83086 8.99004 1.66311 8.52876 1.36962 7.94179C0.725552 6.65365 0 7.25698 0 4.51774C0 1.7785 1.8396 0.408875 4.10886 0.408875ZM4.10886 1.29899C3.1483 1.29899 2.35248 1.5878 1.80632 2.09081C1.27219 2.58277 0.89012 3.35872 0.89012 4.51774C0.89012 5.83804 1.07245 6.12843 1.15762 6.24314C1.24761 6.36428 1.29597 6.38924 1.53012 6.63637C1.73384 6.85138 1.95716 7.12597 2.16611 7.54388C2.48229 8.17626 2.67069 8.68863 2.78271 9.08069C2.78374 9.08428 2.78671 9.09205 2.79274 9.10142C2.7939 9.10322 2.7956 9.10451 2.79676 9.1061H5.42097C5.42213 9.10451 5.42382 9.10322 5.42498 9.10142C5.43102 9.09205 5.43399 9.08428 5.43501 9.08069C5.54704 8.68863 5.73544 8.17626 6.05161 7.54388C6.26056 7.12597 6.48389 6.85138 6.6876 6.63637C6.92176 6.38924 6.97012 6.36428 7.0601 6.24314C7.14528 6.12843 7.32761 5.83804 7.32761 4.51774C7.32761 3.35872 6.94554 2.58277 6.4114 2.09081C5.86525 1.5878 5.06943 1.29899 4.10886 1.29899Z" fill="#69574F"/>
<path d="M2.21661 11.1681C2.21661 10.9344 2.40602 10.745 2.63968 10.745H5.57813C5.81179 10.745 6.0012 10.9344 6.0012 11.1681C6.0012 11.4017 5.81179 11.5911 5.57813 11.5911H2.63968C2.40602 11.5911 2.21661 11.4017 2.21661 11.1681Z" fill="#69574F"/>
</svg>
