<svg width="102" height="51" viewBox="0 0 102 51" fill="none" xmlns="http://www.w3.org/2000/svg">
<path d="M93.8797 49.9839V47.6666H96.2978V49.9839H93.8797Z" fill="#69574F"/>
<path d="M87.3184 50.1451C86.4452 50.1451 85.7198 50.0914 85.1421 49.9839C84.5645 49.863 84.101 49.6749 83.7517 49.4197C83.4024 49.151 83.1405 48.8152 82.9658 48.4122C82.7912 47.9957 82.677 47.4987 82.6233 46.921C82.5695 46.3299 82.5427 45.6448 82.5427 44.8657C82.5427 43.9387 82.5897 43.1394 82.6837 42.4678C82.7778 41.7961 82.9726 41.2453 83.2681 40.8154C83.5636 40.3721 84.0204 40.0497 84.6383 39.8482C85.2697 39.6467 86.1093 39.5459 87.1572 39.5459C87.9766 39.5459 88.6483 39.6131 89.1722 39.7474C89.6961 39.8683 90.1059 40.0631 90.4014 40.3318C90.7104 40.6005 90.932 40.9497 91.0664 41.3796C91.2141 41.7961 91.3082 42.2998 91.3485 42.8909C91.3888 43.4686 91.4089 44.1268 91.4089 44.8657V45.5508H84.6988C84.6988 46.1553 84.7257 46.6456 84.7794 47.0218C84.8331 47.3845 84.954 47.6666 85.1421 47.8681C85.3436 48.0562 85.6526 48.1905 86.069 48.2711C86.4989 48.3383 87.0766 48.3719 87.802 48.3719C88.1109 48.3719 88.4468 48.3651 88.8095 48.3517C89.1856 48.3383 89.5685 48.3114 89.9581 48.2711C90.3477 48.2308 90.6969 48.1972 91.0059 48.1704V49.8428C90.7104 49.8966 90.3544 49.9436 89.9379 49.9839C89.5215 50.0376 89.0849 50.0779 88.6281 50.1048C88.1714 50.1317 87.7348 50.1451 87.3184 50.1451ZM89.3536 44.4022V44.0193C89.3536 43.4148 89.3133 42.9379 89.2327 42.5887C89.1655 42.2259 89.0446 41.9573 88.8699 41.7826C88.7087 41.5946 88.4804 41.4737 88.1848 41.4199C87.9027 41.3528 87.5467 41.3192 87.1169 41.3192C86.5795 41.3192 86.1496 41.3595 85.8272 41.4401C85.5182 41.5072 85.2831 41.6416 85.1219 41.8431C84.9607 42.0446 84.8466 42.3267 84.7794 42.6894C84.7257 43.0387 84.6988 43.5021 84.6988 44.0798H89.7163L89.3536 44.4022Z" fill="#69574F"/>
<path d="M77.5063 50.1451C76.7137 50.1451 76.0555 50.0779 75.5316 49.9436C75.0211 49.7958 74.6113 49.5876 74.3024 49.3189C73.9934 49.0368 73.765 48.6876 73.6172 48.2711C73.4695 47.8412 73.3687 47.3442 73.315 46.78C73.2747 46.2023 73.2545 45.5508 73.2545 44.8254C73.2545 44.1134 73.2814 43.4753 73.3351 42.9111C73.3889 42.3468 73.4963 41.8565 73.6575 41.4401C73.8322 41.0102 74.074 40.6609 74.383 40.3922C74.6919 40.1101 75.095 39.9019 75.592 39.7676C76.0891 39.6198 76.7137 39.5459 77.466 39.5459C77.9496 39.5459 78.4534 39.5728 78.9773 39.6265C79.5146 39.6803 79.958 39.7474 80.3072 39.828V41.5207C80.0117 41.4669 79.6423 41.4266 79.199 41.3998C78.7691 41.3595 78.3728 41.3393 78.0101 41.3393C77.4324 41.3393 76.969 41.3863 76.6197 41.4804C76.2838 41.5744 76.0286 41.749 75.854 42.0043C75.6793 42.2595 75.5584 42.6155 75.4913 43.0723C75.4375 43.529 75.4106 44.1201 75.4106 44.8455C75.4106 45.5844 75.4375 46.1889 75.4913 46.6591C75.5584 47.1292 75.6793 47.4852 75.854 47.727C76.042 47.9688 76.3107 48.1368 76.66 48.2308C77.0093 48.3114 77.4727 48.3517 78.0504 48.3517C78.3862 48.3517 78.7624 48.3383 79.1788 48.3114C79.6087 48.2711 80.0184 48.2241 80.408 48.1704V49.863C80.0453 49.9436 79.5952 50.0108 79.0579 50.0645C78.5206 50.1182 78.0033 50.1451 77.5063 50.1451Z" fill="#69574F"/>
<path d="M66.7939 50.1451C65.9207 50.1451 65.1953 50.0914 64.6177 49.9839C64.04 49.863 63.5766 49.6749 63.2273 49.4197C62.878 49.151 62.6161 48.8152 62.4414 48.4122C62.2668 47.9957 62.1526 47.4987 62.0989 46.921C62.0451 46.3299 62.0182 45.6448 62.0182 44.8657C62.0182 43.9387 62.0653 43.1394 62.1593 42.4678C62.2533 41.7961 62.4481 41.2453 62.7437 40.8154C63.0392 40.3721 63.496 40.0497 64.1139 39.8482C64.7453 39.6467 65.5849 39.5459 66.6327 39.5459C67.4522 39.5459 68.1239 39.6131 68.6478 39.7474C69.1717 39.8683 69.5814 40.0631 69.877 40.3318C70.1859 40.6005 70.4076 40.9497 70.5419 41.3796C70.6897 41.7961 70.7837 42.2998 70.824 42.8909C70.8643 43.4686 70.8845 44.1268 70.8845 44.8657V45.5508H64.1744C64.1744 46.1553 64.2012 46.6456 64.255 47.0218C64.3087 47.3845 64.4296 47.6666 64.6177 47.8681C64.8192 48.0562 65.1282 48.1905 65.5446 48.2711C65.9745 48.3383 66.5521 48.3719 67.2775 48.3719C67.5865 48.3719 67.9224 48.3651 68.2851 48.3517C68.6612 48.3383 69.0441 48.3114 69.4337 48.2711C69.8232 48.2308 70.1725 48.1972 70.4815 48.1704V49.8428C70.1859 49.8966 69.8299 49.9436 69.4135 49.9839C68.9971 50.0376 68.5605 50.0779 68.1037 50.1048C67.647 50.1317 67.2104 50.1451 66.7939 50.1451ZM68.8291 44.4022V44.0193C68.8291 43.4148 68.7888 42.9379 68.7082 42.5887C68.6411 42.2259 68.5202 41.9573 68.3455 41.7826C68.1843 41.5946 67.9559 41.4737 67.6604 41.4199C67.3783 41.3528 67.0223 41.3192 66.5924 41.3192C66.0551 41.3192 65.6252 41.3595 65.3028 41.4401C64.9938 41.5072 64.7587 41.6416 64.5975 41.8431C64.4363 42.0446 64.3221 42.3267 64.255 42.6894C64.2012 43.0387 64.1744 43.5021 64.1744 44.0798H69.1918L68.8291 44.4022Z" fill="#69574F"/>
<path d="M44.7699 49.9839V39.7071H46.7446L46.8051 41.0774H46.9461C47.0939 40.755 47.2954 40.4796 47.5506 40.2512C47.8193 40.0228 48.1484 39.8482 48.538 39.7273C48.941 39.6064 49.4246 39.5459 49.9888 39.5459C50.8486 39.5459 51.4934 39.6735 51.9233 39.9288C52.3532 40.1706 52.6554 40.5534 52.8301 41.0774H52.9913C53.139 40.755 53.3473 40.4796 53.6159 40.2512C53.898 40.0228 54.2406 39.8482 54.6436 39.7273C55.0601 39.6064 55.5504 39.5459 56.1146 39.5459C57.0012 39.5459 57.6662 39.6937 58.1095 39.9892C58.5528 40.2848 58.8484 40.7348 58.9961 41.3393C59.1439 41.9304 59.2178 42.6693 59.2178 43.5559V49.9839H57.0818V44.4022C57.0818 43.7305 57.0617 43.1999 57.0214 42.8103C56.9811 42.4073 56.8938 42.1118 56.7594 41.9237C56.6385 41.7222 56.4437 41.5946 56.1751 41.5408C55.9198 41.4871 55.584 41.4602 55.1675 41.4602C54.6839 41.4602 54.3011 41.5274 54.019 41.6617C53.7368 41.7826 53.5286 41.9774 53.3943 42.2461C53.2599 42.5013 53.1726 42.8305 53.1323 43.2335C53.092 43.6365 53.0719 44.1201 53.0719 44.6843V49.9839H50.9359V44.4022C50.9359 43.7305 50.909 43.1999 50.8553 42.8103C50.815 42.4073 50.7277 42.1118 50.5934 41.9237C50.4725 41.7222 50.2844 41.5946 50.0291 41.5408C49.7739 41.4871 49.4313 41.4602 49.0015 41.4602C48.5313 41.4602 48.1551 41.5274 47.873 41.6617C47.5909 41.7961 47.376 41.9976 47.2282 42.2662C47.0939 42.5215 47.0066 42.8573 46.9663 43.2738C46.926 43.6768 46.9058 44.147 46.9058 44.6843V49.9839H44.7699Z" fill="#69574F"/>
<path d="M37.3707 50.1451C36.5109 50.1451 35.7922 50.0914 35.2146 49.9839C34.6503 49.8764 34.2003 49.7085 33.8645 49.4801C33.5421 49.2383 33.3003 48.9159 33.1391 48.5129C32.9913 48.1099 32.8905 47.6061 32.8368 47.0016C32.7965 46.3971 32.7763 45.6717 32.7763 44.8254C32.7763 43.9925 32.7965 43.2738 32.8368 42.6693C32.8905 42.0647 32.9913 41.561 33.1391 41.158C33.3003 40.755 33.5421 40.4393 33.8645 40.2109C34.2003 39.9691 34.6503 39.8012 35.2146 39.7071C35.7922 39.5997 36.5109 39.5459 37.3707 39.5459C38.2439 39.5459 38.9626 39.5997 39.5268 39.7071C40.1044 39.8012 40.5545 39.9691 40.8769 40.2109C41.2127 40.4393 41.4545 40.755 41.6023 41.158C41.7635 41.561 41.8642 42.0647 41.9045 42.6693C41.9583 43.2738 41.9851 43.9925 41.9851 44.8254C41.9851 45.6717 41.9583 46.3971 41.9045 47.0016C41.8642 47.6061 41.7635 48.1099 41.6023 48.5129C41.4545 48.9159 41.2127 49.2383 40.8769 49.4801C40.5545 49.7085 40.1044 49.8764 39.5268 49.9839C38.9626 50.0914 38.2439 50.1451 37.3707 50.1451ZM37.3707 48.3517C37.9886 48.3517 38.4655 48.3114 38.8014 48.2308C39.1372 48.1502 39.3723 47.989 39.5066 47.7472C39.6544 47.5054 39.7417 47.1494 39.7686 46.6792C39.8089 46.209 39.829 45.5911 39.829 44.8254C39.829 44.0596 39.8089 43.4484 39.7686 42.9917C39.7417 42.5215 39.6544 42.1655 39.5066 41.9237C39.3723 41.6819 39.1372 41.5274 38.8014 41.4602C38.4655 41.3796 37.9886 41.3393 37.3707 41.3393C36.7662 41.3393 36.296 41.3796 35.9601 41.4602C35.6243 41.5274 35.3825 41.6819 35.2347 41.9237C35.1004 42.1655 35.0131 42.5215 34.9728 42.9917C34.9459 43.4484 34.9324 44.0596 34.9324 44.8254C34.9324 45.5911 34.9459 46.209 34.9728 46.6792C35.0131 47.1494 35.1004 47.5054 35.2347 47.7472C35.3825 47.989 35.6243 48.1502 35.9601 48.2308C36.296 48.3114 36.7662 48.3517 37.3707 48.3517Z" fill="#69574F"/>
<path d="M27.74 50.1451C26.9474 50.1451 26.2891 50.0779 25.7652 49.9436C25.2547 49.7958 24.845 49.5876 24.536 49.3189C24.2271 49.0368 23.9987 48.6876 23.8509 48.2711C23.7031 47.8412 23.6024 47.3442 23.5487 46.78C23.5084 46.2023 23.4882 45.5508 23.4882 44.8254C23.4882 44.1134 23.5151 43.4753 23.5688 42.9111C23.6225 42.3468 23.73 41.8565 23.8912 41.4401C24.0658 41.0102 24.3077 40.6609 24.6166 40.3922C24.9256 40.1101 25.3286 39.9019 25.8257 39.7676C26.3227 39.6198 26.9474 39.5459 27.6997 39.5459C28.1833 39.5459 28.687 39.5728 29.211 39.6265C29.7483 39.6803 30.1916 39.7474 30.5409 39.828V41.5207C30.2453 41.4669 29.8759 41.4266 29.4326 41.3998C29.0027 41.3595 28.6064 41.3393 28.2437 41.3393C27.6661 41.3393 27.2026 41.3863 26.8533 41.4804C26.5175 41.5744 26.2623 41.749 26.0876 42.0043C25.913 42.2595 25.7921 42.6155 25.7249 43.0723C25.6712 43.529 25.6443 44.1201 25.6443 44.8455C25.6443 45.5844 25.6712 46.1889 25.7249 46.6591C25.7921 47.1292 25.913 47.4852 26.0876 47.727C26.2757 47.9688 26.5444 48.1368 26.8936 48.2308C27.2429 48.3114 27.7064 48.3517 28.284 48.3517C28.6199 48.3517 28.996 48.3383 29.4125 48.3114C29.8423 48.2711 30.2521 48.2241 30.6416 48.1704V49.863C30.2789 49.9436 29.8289 50.0108 29.2916 50.0645C28.7542 50.1182 28.237 50.1451 27.74 50.1451Z" fill="#69574F"/>
<path d="M97.4539 32.1451C97.0509 32.1451 96.6143 32.1317 96.1441 32.1048C95.6874 32.0779 95.2374 32.0444 94.7941 32.0041C94.3507 31.9638 93.9544 31.9167 93.6052 31.863V30.1704C93.8335 30.1838 94.0888 30.2039 94.3709 30.2308C94.6664 30.2577 94.9754 30.2778 95.2978 30.2913C95.6202 30.3047 95.9359 30.3181 96.2449 30.3316C96.5539 30.345 96.8561 30.3517 97.1517 30.3517C97.7965 30.3517 98.26 30.3114 98.5421 30.2308C98.8376 30.1502 99.0257 30.0159 99.1063 29.8278C99.2003 29.6263 99.2473 29.371 99.2473 29.0621C99.2473 28.7128 99.2137 28.4576 99.1466 28.2964C99.0928 28.1351 98.9854 28.0277 98.8242 27.9739C98.663 27.9202 98.4144 27.8732 98.0786 27.8329L95.5799 27.5306C94.9351 27.4635 94.4448 27.3157 94.1089 27.0873C93.7865 26.8455 93.5649 26.5231 93.444 26.1201C93.3365 25.7036 93.2828 25.1999 93.2828 24.6088C93.2828 23.9237 93.3768 23.3796 93.5649 22.9766C93.7664 22.5602 94.0418 22.2512 94.391 22.0497C94.7538 21.8482 95.1903 21.7138 95.7008 21.6467C96.2113 21.5795 96.7688 21.5459 97.3733 21.5459C97.7495 21.5459 98.1391 21.5594 98.5421 21.5862C98.9585 21.6131 99.3548 21.6534 99.7309 21.7071C100.121 21.7474 100.456 21.7944 100.738 21.8482V23.5408C100.416 23.5005 100.067 23.4669 99.6906 23.4401C99.3145 23.4132 98.9384 23.3931 98.5622 23.3796C98.1995 23.3528 97.8502 23.3393 97.5144 23.3393C97.0173 23.3393 96.6076 23.3662 96.2852 23.4199C95.9628 23.4602 95.721 23.5677 95.5598 23.7423C95.412 23.9035 95.3381 24.1856 95.3381 24.5886C95.3381 24.8976 95.3583 25.1327 95.3986 25.2939C95.4523 25.4417 95.5531 25.5492 95.7008 25.6163C95.862 25.6701 96.1038 25.7171 96.4263 25.7574L99.1264 26.0798C99.6369 26.1335 100.047 26.241 100.356 26.4022C100.678 26.55 100.913 26.8254 101.061 27.2284C101.222 27.6179 101.303 28.2157 101.303 29.0218C101.303 29.6935 101.215 30.2375 101.041 30.654C100.88 31.057 100.631 31.3727 100.295 31.601C99.9593 31.816 99.5496 31.957 99.066 32.0242C98.5958 32.1048 98.0584 32.1451 97.4539 32.1451Z" fill="#69574F"/>
<path d="M85.0733 32.1451C84.3747 32.1451 83.7837 32.0511 83.3001 31.863C82.8299 31.6749 82.4739 31.366 82.2321 30.9361C81.9903 30.4928 81.8694 29.895 81.8694 29.1427C81.8694 28.3501 81.9634 27.7254 82.1515 27.2687C82.3395 26.7985 82.662 26.4627 83.1187 26.2611C83.5755 26.0596 84.2203 25.9589 85.0532 25.9589C85.1875 25.9589 85.3823 25.9656 85.6375 25.979C85.9062 25.979 86.2085 25.9858 86.5443 25.9992C86.8936 25.9992 87.2361 26.0059 87.572 26.0193C87.9212 26.0193 88.2369 26.0261 88.5191 26.0395V25.5559C88.5191 25.032 88.4855 24.6222 88.4183 24.3267C88.3511 24.0312 88.2101 23.8162 87.9951 23.6819C87.7936 23.5341 87.4981 23.4401 87.1085 23.3998C86.7189 23.3595 86.2152 23.3393 85.5972 23.3393C85.3017 23.3393 84.9524 23.3528 84.5494 23.3796C84.1598 23.3931 83.777 23.4132 83.4008 23.4401C83.0247 23.4669 82.7358 23.5005 82.5343 23.5408V21.8482C83.0851 21.7407 83.6896 21.6668 84.3479 21.6265C85.0061 21.5728 85.6644 21.5459 86.3226 21.5459C87.0884 21.5459 87.7265 21.5929 88.2369 21.687C88.7609 21.781 89.184 21.9288 89.5064 22.1303C89.8288 22.3318 90.0706 22.5937 90.2318 22.9162C90.3931 23.2386 90.5072 23.6281 90.5744 24.0849C90.6416 24.5282 90.6752 25.0387 90.6752 25.6163V31.9839H88.7004L88.6198 30.654H88.4989C88.2705 31.0838 87.9616 31.413 87.572 31.6413C87.1958 31.8563 86.7861 31.9906 86.3428 32.0444C85.8995 32.1115 85.4763 32.1451 85.0733 32.1451ZM86.0204 30.4122C86.3562 30.4122 86.6585 30.392 86.9272 30.3517C87.2093 30.298 87.4511 30.2174 87.6526 30.1099C87.8675 29.989 88.0354 29.8278 88.1563 29.6263C88.2772 29.3979 88.3646 29.136 88.4183 28.8404C88.4855 28.5449 88.5191 28.1956 88.5191 27.7926V27.4299H85.5771C85.1338 27.4299 84.7912 27.4635 84.5494 27.5306C84.321 27.5978 84.1665 27.7389 84.0859 27.9538C84.0053 28.1687 83.965 28.4979 83.965 28.9412C83.965 29.3576 84.012 29.6733 84.1061 29.8882C84.2001 30.0898 84.3949 30.2308 84.6904 30.3114C84.9994 30.3786 85.4427 30.4122 86.0204 30.4122Z" fill="#69574F"/>
<path d="M70.45 31.9839V21.7071H72.4248L72.4852 23.0774H72.6464C72.8076 22.7415 73.0226 22.4661 73.2912 22.2512C73.5599 22.0228 73.9092 21.8482 74.3391 21.7273C74.7689 21.6064 75.2928 21.5459 75.9108 21.5459C76.6362 21.5459 77.2206 21.6332 77.6639 21.8079C78.1072 21.9691 78.443 22.2176 78.6714 22.5534C78.8998 22.8893 79.0543 23.3057 79.1349 23.8028C79.2289 24.2998 79.2759 24.8842 79.2759 25.5559V31.9839H77.1198V26.4022C77.1198 25.7305 77.093 25.1999 77.0392 24.8103C76.9989 24.4073 76.9049 24.1118 76.7571 23.9237C76.6093 23.7222 76.3877 23.5946 76.0921 23.5408C75.81 23.4871 75.4272 23.4602 74.9436 23.4602C74.4062 23.4602 73.9763 23.5274 73.6539 23.6617C73.345 23.7961 73.1099 23.9976 72.9487 24.2662C72.8009 24.5349 72.7001 24.8708 72.6464 25.2738C72.6061 25.6768 72.586 26.147 72.586 26.6843V31.9839H70.45Z" fill="#69574F"/>
<path d="M63.5864 32.1451C62.7132 32.1451 61.9878 32.0914 61.4101 31.9839C60.8325 31.863 60.369 31.6749 60.0197 31.4197C59.6704 31.151 59.4085 30.8152 59.2339 30.4122C59.0592 29.9957 58.945 29.4987 58.8913 28.921C58.8376 28.3299 58.8107 27.6448 58.8107 26.8657C58.8107 25.9387 58.8577 25.1394 58.9517 24.4677C59.0458 23.7961 59.2406 23.2453 59.5361 22.8154C59.8316 22.3721 60.2884 22.0497 60.9063 21.8482C61.5377 21.6467 62.3773 21.5459 63.4252 21.5459C64.2446 21.5459 64.9163 21.6131 65.4402 21.7474C65.9641 21.8683 66.3739 22.0631 66.6694 22.3318C66.9784 22.6005 67.2 22.9497 67.3344 23.3796C67.4821 23.7961 67.5762 24.2998 67.6165 24.8909C67.6568 25.4686 67.6769 26.1268 67.6769 26.8657V27.5508H60.9668C60.9668 28.1553 60.9937 28.6456 61.0474 29.0218C61.1011 29.3845 61.222 29.6666 61.4101 29.8681C61.6116 30.0562 61.9206 30.1905 62.337 30.2711C62.7669 30.3383 63.3446 30.3719 64.07 30.3719C64.379 30.3719 64.7148 30.3651 65.0775 30.3517C65.4537 30.3383 65.8365 30.3114 66.2261 30.2711C66.6157 30.2308 66.9649 30.1972 67.2739 30.1704V31.8428C66.9784 31.8966 66.6224 31.9436 66.2059 31.9839C65.7895 32.0376 65.3529 32.0779 64.8962 32.1048C64.4394 32.1317 64.0028 32.1451 63.5864 32.1451ZM65.6216 26.4022V26.0193C65.6216 25.4148 65.5813 24.9379 65.5007 24.5886C65.4335 24.2259 65.3126 23.9573 65.138 23.7826C64.9768 23.5946 64.7484 23.4737 64.4528 23.4199C64.1707 23.3527 63.8147 23.3192 63.3849 23.3192C62.8475 23.3192 62.4176 23.3595 62.0952 23.4401C61.7863 23.5072 61.5512 23.6416 61.39 23.8431C61.2288 24.0446 61.1146 24.3267 61.0474 24.6894C60.9937 25.0387 60.9668 25.5021 60.9668 26.0798H65.9843L65.6216 26.4022Z" fill="#69574F"/>
<path d="M47.3871 35.9939V21.7071H49.3618L49.4223 23.0774H49.5633C49.7783 22.6475 50.0536 22.3251 50.3895 22.1101C50.7253 21.8818 51.0948 21.734 51.4978 21.6668C51.9142 21.5862 52.3374 21.5459 52.7673 21.5459C53.4524 21.5459 54.0233 21.6332 54.4801 21.8079C54.9502 21.9691 55.3264 22.2512 55.6085 22.6542C55.8906 23.0438 56.0988 23.5811 56.2332 24.2662C56.3675 24.9514 56.4347 25.8044 56.4347 26.8254C56.4347 27.8598 56.3675 28.7195 56.2332 29.4046C56.1123 30.0897 55.9107 30.6338 55.6286 31.0368C55.36 31.4264 54.9972 31.7085 54.5405 31.8831C54.0838 32.0578 53.5128 32.1451 52.8277 32.1451C52.3441 32.1451 51.9008 32.1048 51.4978 32.0242C51.0948 31.9436 50.7388 31.8093 50.4298 31.6212C50.1208 31.4197 49.8656 31.1376 49.6641 30.7749H49.523V35.9939H47.3871ZM51.8806 30.2308C52.418 30.2308 52.8411 30.1972 53.1501 30.1301C53.4725 30.0494 53.7143 29.9017 53.8755 29.6867C54.0367 29.4584 54.1442 29.1225 54.1979 28.6792C54.2517 28.2225 54.2785 27.6112 54.2785 26.8455C54.2785 26.0798 54.2517 25.4753 54.1979 25.032C54.1442 24.5752 54.0367 24.2327 53.8755 24.0043C53.7143 23.7759 53.4725 23.6281 53.1501 23.561C52.8411 23.4804 52.418 23.4401 51.8806 23.4401C51.3164 23.4401 50.8731 23.5207 50.5507 23.6819C50.2283 23.8431 49.9865 24.0849 49.8253 24.4073C49.6909 24.6894 49.6036 25.0387 49.5633 25.4551C49.5365 25.8581 49.523 26.3216 49.523 26.8455C49.523 27.3829 49.5365 27.853 49.5633 28.2561C49.6036 28.6456 49.6842 28.9748 49.8051 29.2434C49.9663 29.5927 50.2081 29.8479 50.5305 30.0091C50.8664 30.1569 51.3164 30.2308 51.8806 30.2308Z" fill="#69574F"/>
<path d="M32.4637 31.9839L37.4207 18.1203H40.403L45.36 31.9839H43.0024L41.7934 28.5583H35.9497L34.7609 31.9839H32.4637ZM36.5946 26.6239H41.1284L38.9119 20.3167H38.8111L36.5946 26.6239Z" fill="#69574F"/>
<path d="M0.697266 27.9209C0.697266 25.7118 2.48813 23.9209 4.69727 23.9209H18.9805C20.085 23.9209 20.9803 23.0253 20.9805 21.9209V15.7275C20.9807 13.5186 22.7715 11.7276 24.9805 11.7275H32.21C33.2253 11.7275 34.0487 10.905 34.0488 9.88965C34.0488 7.76968 35.7677 6.05078 37.8877 6.05078H38.96C39.9404 6.05065 40.7354 5.25586 40.7354 4.27539C40.7354 2.19029 42.4256 0.5 44.5107 0.5H49.3047V2.5H44.5107C43.5302 2.5 42.7354 3.29486 42.7354 4.27539C42.7354 6.36043 41.045 8.05065 38.96 8.05078H37.8877C36.8723 8.05078 36.0488 8.87425 36.0488 9.88965C36.0487 12.0095 34.3299 13.7275 32.21 13.7275H24.9805C23.8761 13.7276 22.9807 14.6232 22.9805 15.7275V21.9209C22.9803 24.1299 21.1895 25.9209 18.9805 25.9209H4.69727C3.5927 25.9209 2.69727 26.8163 2.69727 27.9209V45.7754H0.697266V27.9209Z" fill="#69574F"/>
</svg>
