<svg width="13" height="10" viewBox="0 0 13 10" fill="none" xmlns="http://www.w3.org/2000/svg">
<path d="M8.36317 0.573644C8.48893 0.586038 8.60716 0.641594 8.6973 0.731733L12.5777 4.61188C12.792 4.82618 12.792 5.17382 12.5777 5.38812L8.6973 9.26826C8.59439 9.37118 8.45485 9.42903 8.30931 9.42903H1.64145C1.20658 9.42774 0.789828 9.25445 0.482305 8.947C0.17477 8.63946 0.00129403 8.22251 1.38372e-07 7.78759V2.22179C-8.85283e-05 2.00554 0.0424358 1.79139 0.125132 1.59158C0.207868 1.39167 0.329327 1.21 0.482305 1.05702C0.635236 0.904107 0.81677 0.782839 1.01659 0.700115C1.21629 0.617462 1.43041 0.574949 1.64654 0.574984L8.30905 0.570965L8.36317 0.573644ZM1.64654 1.67223C1.57446 1.67219 1.50307 1.68647 1.43647 1.71403C1.36986 1.74159 1.30926 1.78203 1.25828 1.833C1.20731 1.88397 1.16689 1.94459 1.13931 2.01118C1.11173 2.07781 1.09747 2.1494 1.09751 2.22152V7.78437L1.10046 7.8385C1.11322 7.96358 1.1686 8.08107 1.25828 8.17075C1.36079 8.27326 1.49969 8.33109 1.64466 8.33152H8.08209L11.4132 4.99986L8.08209 1.66848L1.64654 1.67223ZM7.92133 4.61188C8.13561 4.39766 8.48301 4.39768 8.6973 4.61188C8.9116 4.82619 8.91161 5.17383 8.6973 5.38812L8.69355 5.39187C8.47924 5.60617 8.1316 5.60618 7.91731 5.39187C7.70308 5.17756 7.70329 4.83017 7.91757 4.6159L7.92133 4.61188Z" fill="#69574F"/>
</svg>
